<svg width="14" height="10" viewBox="0 0 14 10" fill="none" xmlns="http://www.w3.org/2000/svg">
<path d="M5.66659 4.33334H3.73392L3.73459 4.32734C3.82163 3.9011 3.99201 3.49624 4.23592 3.13601C4.59889 2.60122 5.10802 2.18211 5.70259 1.92867C5.90392 1.84334 6.11392 1.77801 6.32792 1.73467C6.77185 1.64467 7.22932 1.64467 7.67325 1.73467C8.31123 1.8654 8.89665 2.18095 9.35659 2.64201L10.3006 1.70067C9.87513 1.2751 9.37175 0.935367 8.81792 0.700006C8.53546 0.580426 8.24179 0.489308 7.94125 0.428006C7.32114 0.302013 6.68203 0.302013 6.06192 0.428006C5.76115 0.489562 5.46726 0.580901 5.18459 0.700673C4.3516 1.05407 3.63854 1.64073 3.13125 2.39001C2.78984 2.89524 2.55109 3.46267 2.42859 4.06001C2.40992 4.15001 2.39992 4.24201 2.38659 4.33334H0.333252L2.99992 7.00001L5.66659 4.33334ZM8.33325 5.66667H10.2659L10.2653 5.67201C10.0911 6.52651 9.5874 7.27806 8.86325 7.76401C8.50313 8.00812 8.09823 8.17851 7.67192 8.26534C7.22822 8.35534 6.77096 8.35534 6.32725 8.26534C5.90101 8.17829 5.49615 8.00792 5.13592 7.76401C4.959 7.64434 4.79382 7.50817 4.64259 7.35734L3.69992 8.30001C4.12559 8.72546 4.6292 9.06498 5.18325 9.30001C5.46592 9.42001 5.76125 9.51134 6.05992 9.57201C6.6798 9.69807 7.31871 9.69807 7.93859 9.57201C9.13361 9.32398 10.1848 8.61962 10.8686 7.60867C11.2097 7.10382 11.4482 6.53685 11.5706 5.94001C11.5886 5.85001 11.5993 5.75801 11.6126 5.66667H13.6666L10.9999 3.00001L8.33325 5.66667Z" fill="black" fill-opacity="0.55"/>
</svg>
