<svg width="64" height="64" viewBox="0 0 64 64" fill="none" xmlns="http://www.w3.org/2000/svg">
<g clip-path="url(#clip0_29_89)">
<path d="M32 63.04C49.1429 63.04 63.04 49.1429 63.04 32C63.04 14.8571 49.1429 0.959991 32 0.959991C14.8571 0.959991 0.960022 14.8571 0.960022 32C0.960022 49.1429 14.8571 63.04 32 63.04Z" fill="url(#paint0_linear_29_89)"/>
<path d="M45.5829 44.3665L35.0843 18.9937C34.491 17.6826 33.614 17.04 32.4532 17.04H31.5246C30.3638 17.04 29.4868 17.6826 28.8935 18.9937L24.3281 30.048H20.8712C20.3735 30.0499 19.8966 30.248 19.544 30.5994C19.1915 30.9507 18.9918 31.4269 18.9881 31.9246V31.9503C18.9918 32.448 19.1915 32.9242 19.544 33.2755C19.8966 33.6269 20.3735 33.825 20.8712 33.8269H22.7281L18.369 44.3665C18.2866 44.5977 18.243 44.841 18.2401 45.0865C18.2401 45.6777 18.4206 46.1405 18.756 46.5004C19.0913 46.8603 19.5556 47.04 20.1489 47.04C20.5385 47.0347 20.9169 46.909 21.2321 46.68C21.5674 46.4486 21.7996 46.1145 21.9801 45.7289L26.7781 33.8265H30.1057C30.6034 33.8246 31.0802 33.6265 31.4328 33.2751C31.7853 32.9238 31.9851 32.4476 31.9887 31.9499V31.8985C31.9851 31.4008 31.7853 30.9246 31.4328 30.5732C31.0802 30.2219 30.6034 30.0237 30.1057 30.0218H28.326L31.9889 20.896L41.9717 45.7289C42.1522 46.1145 42.3844 46.4489 42.7197 46.6801C43.035 46.9091 43.4135 47.0349 43.8032 47.0401C44.3965 47.0401 44.8608 46.8601 45.1961 46.5002C45.5315 46.1402 45.7121 45.6776 45.7121 45.0863C45.7218 44.8398 45.6777 44.5942 45.5829 44.3665Z" fill="white"/>
</g>
<defs>
<linearGradient id="paint0_linear_29_89" x1="57.2666" y1="15.0521" x2="11.0791" y2="53.9142" gradientUnits="userSpaceOnUse">
<stop stop-color="#B6509E"/>
<stop offset="1" stop-color="#2EBAC6"/>
</linearGradient>
<clipPath id="clip0_29_89">
<rect width="64" height="64" fill="white"/>
</clipPath>
</defs>
</svg>
